<?xml version="1.0" standalone="no"?>
<!DOCTYPE svg PUBLIC "-//W3C//DTD SVG 20010904//EN"
 "http://www.w3.org/TR/2001/REC-SVG-20010904/DTD/svg10.dtd">
<svg version="1.0" xmlns="http://www.w3.org/2000/svg"
 width="50px" height="50px" viewBox="0 0 920.000000 920.000000"
 preserveAspectRatio="xMidYMid meet">

<g transform="translate(0.000000,920.000000) scale(0.100000,-0.100000)"
fill="#000000" stroke="none">
<path d="M2740 9190 c-183 -8 -271 -26 -406 -83 -327 -138 -654 -451 -873
-837 -337 -593 -470 -1412 -365 -2250 55 -441 184 -813 385 -1116 87 -130 268
-317 375 -387 110 -72 111 -71 65 21 -207 413 -376 921 -451 1361 -67 392 -68
888 -4 1289 121 763 457 1388 943 1753 140 105 406 239 475 239 8 0 18 5 21
10 3 6 5 9 3 8 -2 -1 -77 -4 -168 -8z"/>
<path d="M3280 9179 c-257 -39 -571 -233 -807 -497 -346 -390 -569 -908 -658
-1532 -113 -788 -11 -1619 282 -2289 62 -142 140 -291 157 -297 6 -2 443 169
971 382 528 212 983 394 1011 405 l52 20 36 102 c236 671 330 1722 215 2412
-129 774 -549 1266 -1109 1299 -47 2 -114 0 -150 -5z"/>
<path d="M4380 5015 c-53 -23 -1011 -410 -1613 -652 -233 -93 -287 -119 -282
-131 17 -44 131 -188 220 -277 338 -340 927 -634 1622 -810 456 -115 844 -158
1244 -136 590 32 1079 131 1406 286 373 177 504 392 426 699 -125 501 -937
884 -2163 1022 -95 10 -259 17 -475 19 l-330 4 -55 -24z m675 -415 c301 -17
506 -47 750 -110 472 -122 755 -314 755 -514 0 -139 -149 -267 -415 -355 -232
-77 -453 -110 -795 -118 -264 -6 -447 4 -685 38 -470 67 -882 226 -1039 399
-290 321 190 622 1059 663 137 7 209 6 370 -3z"/>
<path d="M1966 4142 c31 -476 200 -924 503 -1330 134 -178 357 -404 532 -537
l27 -20 -23 -210 c-13 -115 -48 -453 -79 -750 -31 -297 -58 -555 -62 -573 -5
-30 1 -39 62 -102 257 -267 695 -473 1194 -564 439 -80 1061 -72 1520 20 271
53 537 161 652 264 47 42 55 53 51 77 -40 247 -112 561 -183 790 -37 124 -111
323 -128 350 -5 9 -23 8 -74 -2 -298 -63 -605 -97 -873 -97 -383 0 -647 54
-932 192 -97 47 -313 174 -313 184 0 2 53 -13 117 -31 428 -123 959 -156 1418
-87 671 100 1209 418 1518 899 65 102 186 349 176 360 -2 2 -45 -10 -94 -26
-304 -98 -752 -184 -1150 -221 -210 -20 -749 -16 -955 5 -574 62 -1049 194
-1525 427 -445 218 -773 456 -1158 841 l-227 228 6 -87z"/>
</g>
</svg>