<?xml version="1.0" standalone="no"?>
<!DOCTYPE svg PUBLIC "-//W3C//DTD SVG 20010904//EN"
 "http://www.w3.org/TR/2001/REC-SVG-20010904/DTD/svg10.dtd">
<svg version="1.0" xmlns="http://www.w3.org/2000/svg"
 width="35px" height="35px" viewBox="0 0 512.000000 512.000000"
 preserveAspectRatio="xMidYMid meet">

<g transform="translate(0.000000,512.000000) scale(0.100000,-0.100000)"
fill="#333333" stroke="none">
<path d="M2527 5107 c-13 -9 -23 -47 -37 -142 -68 -444 -178 -798 -370 -1190
-106 -216 -223 -412 -477 -800 -222 -340 -283 -441 -363 -607 -95 -197 -154
-380 -192 -588 -21 -120 -18 -473 6 -585 61 -293 193 -534 410 -750 224 -224
478 -359 791 -422 135 -27 415 -24 551 5 310 67 549 196 770 416 174 175 281
343 357 562 61 178 72 252 71 499 0 200 -3 232 -27 350 -35 162 -93 336 -163
483 -90 190 -146 283 -471 782 -176 271 -247 389 -339 565 -209 402 -337 792
-409 1255 -18 114 -29 158 -42 168 -21 15 -45 15 -66 -1z m-166 -2046 c16 -16
29 -38 29 -48 0 -11 -25 -108 -55 -217 -159 -571 -208 -835 -225 -1216 -9
-202 -13 -228 -48 -297 -48 -92 -128 -144 -238 -151 -97 -6 -158 15 -228 79
-96 87 -117 174 -97 387 37 377 163 657 510 1131 62 84 140 195 173 245 34 50
68 97 76 104 27 21 71 14 103 -17z"/>
</g>
</svg>
